<svg viewBox="0 0 1280 920" xmlns="http://www.w3.org/2000/svg" font-family="-apple-system,Segoe UI,Roboto,Arial,sans-serif">
<rect width="1280" height="920" fill="#0c1019"/>
<text x="40" y="56" fill="#e9eef7" font-size="30" font-weight="700">The web around Cat Matlala</text>
<text x="40" y="86" fill="#8a96ad" font-size="16">Who the Madlanga testimony repeatedly ties to one businessman — across 106 hearing days.</text>
<text x="40" y="108" fill="#8a96ad" font-size="14">Line weight = number of sworn claims that name both. The lawyers always in the room are removed; this is the signal underneath.</text>
<line x1="640.0" y1="470.0" x2="640" y2="140" stroke="#46566e" stroke-opacity="0.5" stroke-width="9.0"/>
<line x1="640.0" y1="470.0" x2="805" y2="184" stroke="#46566e" stroke-opacity="0.5" stroke-width="8.6"/>
<line x1="640.0" y1="470.0" x2="926" y2="305" stroke="#46566e" stroke-opacity="0.5" stroke-width="7.4"/>
<line x1="640.0" y1="470.0" x2="970" y2="470" stroke="#46566e" stroke-opacity="0.5" stroke-width="7.2"/>
<line x1="640.0" y1="470.0" x2="926" y2="635" stroke="#46566e" stroke-opacity="0.5" stroke-width="7.1"/>
<line x1="640.0" y1="470.0" x2="805" y2="756" stroke="#46566e" stroke-opacity="0.5" stroke-width="3.6"/>
<line x1="640.0" y1="470.0" x2="640" y2="800" stroke="#46566e" stroke-opacity="0.5" stroke-width="3.4"/>
<line x1="640.0" y1="470.0" x2="475" y2="756" stroke="#ffcf4a" stroke-opacity="0.7" stroke-width="3.3"/>
<line x1="640.0" y1="470.0" x2="354" y2="635" stroke="#46566e" stroke-opacity="0.5" stroke-width="2.7"/>
<line x1="640.0" y1="470.0" x2="310" y2="470" stroke="#46566e" stroke-opacity="0.5" stroke-width="2.7"/>
<line x1="640.0" y1="470.0" x2="354" y2="305" stroke="#46566e" stroke-opacity="0.5" stroke-width="2.6"/>
<line x1="640.0" y1="470.0" x2="475" y2="184" stroke="#ffcf4a" stroke-opacity="0.7" stroke-width="1.8"/>
<circle cx="640" cy="140" r="46" fill="#7fa8cc"/>
<text x="640" y="144" fill="#c4cee0" font-size="14.5" text-anchor="middle">Maj-Gen Senona <tspan fill="#7f8ca3">· 308</tspan></text>
<circle cx="805" cy="184" r="45" fill="#7fa8cc"/>
<text x="858" y="188" fill="#c4cee0" font-size="14.5" text-anchor="start">Brown Mogotsi <tspan fill="#7f8ca3">· 247</tspan></text>
<circle cx="926" cy="305" r="40" fill="#7fa8cc"/>
<text x="973" y="309" fill="#c4cee0" font-size="14.5" text-anchor="start">Lt-Gen Shibiri <tspan fill="#7f8ca3">· 182</tspan></text>
<circle cx="970" cy="470" r="39" fill="#7fa8cc"/>
<text x="1017" y="474" fill="#c4cee0" font-size="14.5" text-anchor="start">Lt-Gen Shadrack Sibiya <tspan fill="#7f8ca3">· 171</tspan></text>
<rect x="887" y="597" width="77" height="77" rx="5" fill="#9aa7bd"/>
<text x="972" y="639" fill="#c4cee0" font-size="14.5" text-anchor="start">South African Police Service <tspan fill="#7f8ca3">· 166</tspan></text>
<circle cx="805" cy="756" r="25" fill="#7fa8cc"/>
<text x="838" y="760" fill="#c4cee0" font-size="14.5" text-anchor="start">Lt-Gen Nhlanhla Mkhwanazi <tspan fill="#7f8ca3">· 44</tspan></text>
<rect x="616" y="776" width="47" height="47" rx="5" fill="#9aa7bd"/>
<text x="640" y="804" fill="#c4cee0" font-size="14.5" text-anchor="middle">Political Killings Task Team <tspan fill="#7f8ca3">· 38</tspan></text>
<circle cx="475" cy="756" r="23" fill="#ffcf4a" stroke="#ffcf4a" stroke-width="3"/>
<text x="444" y="760" fill="#c4cee0" font-size="14.5" text-anchor="end">Medicare 24 <tspan fill="#7f8ca3">· 35</tspan></text>
<circle cx="354" cy="635" r="21" fill="#7fa8cc"/>
<text x="325" y="639" fill="#c4cee0" font-size="14.5" text-anchor="end">Brigadier JD Mkhwanazi <tspan fill="#7f8ca3">· 24</tspan></text>
<circle cx="310" cy="470" r="21" fill="#7fa8cc"/>
<text x="281" y="474" fill="#c4cee0" font-size="14.5" text-anchor="end">Senzo Mchunu (Police Minister) <tspan fill="#7f8ca3">· 24</tspan></text>
<rect x="334" y="284" width="41" height="41" rx="5" fill="#9aa7bd"/>
<text x="326" y="309" fill="#c4cee0" font-size="14.5" text-anchor="end">IPID <tspan fill="#7f8ca3">· 23</tspan></text>
<circle cx="475" cy="184" r="17" fill="#ffcf4a" stroke="#ffcf4a" stroke-width="3"/>
<text x="450" y="188" fill="#c4cee0" font-size="14.5" text-anchor="end">CAT VIP Security <tspan fill="#7f8ca3">· 11</tspan></text>
<circle cx="640.0" cy="470.0" r="56" fill="#ffcf4a"/>
<text x="640.0" y="468.0" fill="#1a1407" font-size="19" font-weight="700" text-anchor="middle">Vusimuzi</text>
<text x="640.0" y="490.0" fill="#1a1407" font-size="19" font-weight="700" text-anchor="middle">"Cat" Matlala</text>
<text x="40" y="874" fill="#5e6b82" font-size="13">Allegation in the public record, attributed to named speakers under oath — NOT a finding of fact. The graph shows who the testimony discusses together, not who is guilty.</text>
<text x="40" y="896" fill="#5e6b82" font-size="13">Source: official Madlanga Commission transcripts · 14,783 passages · 49,068 claims · Commission Transcript Intelligence · DRAFT</text>
</svg>