<svg viewBox="0 0 1320 760" xmlns="http://www.w3.org/2000/svg" font-family="-apple-system,Segoe UI,Roboto,Arial,sans-serif">
<rect width="1320" height="760" fill="#0b0f18"/>
<text x="70" y="52" fill="#e9eef7" font-size="30" font-weight="700">The days the Madlanga Commission was about one businessman</text>
<text x="70" y="84" fill="#8a96ad" font-size="16">Passages naming Vusimuzi &#8220;Cat&#8221; Matlala, per hearing day (106 days).</text>
<text x="70" y="108" fill="#8a96ad" font-size="16">He surfaces on 62 of them. On a handful, the hearing is almost entirely about him.</text>
<line x1="70" y1="670" x2="1280" y2="670" stroke="#1c2533" stroke-width="1"/>
<text x="62" y="674" fill="#5e6b82" font-size="12" text-anchor="end">0</text>
<line x1="70" y1="539" x2="1280" y2="539" stroke="#1c2533" stroke-width="1"/>
<text x="62" y="543" fill="#5e6b82" font-size="12" text-anchor="end">30</text>
<line x1="70" y1="408" x2="1280" y2="408" stroke="#1c2533" stroke-width="1"/>
<text x="62" y="412" fill="#5e6b82" font-size="12" text-anchor="end">60</text>
<line x1="70" y1="277" x2="1280" y2="277" stroke="#1c2533" stroke-width="1"/>
<text x="62" y="281" fill="#5e6b82" font-size="12" text-anchor="end">90</text>
<line x1="70" y1="150" x2="1280" y2="150" stroke="#1c2533" stroke-width="1"/>
<text x="62" y="154" fill="#5e6b82" font-size="12" text-anchor="end">119</text>
<rect x="71.0" y="656.9" width="9.8" height="13.1" fill="#46c7a8" opacity="0.8"/>
<rect x="82.4" y="617.6" width="9.8" height="52.4" fill="#46c7a8" opacity="0.8"/>
<rect x="93.8" y="621.9" width="9.8" height="48.1" fill="#46c7a8" opacity="0.8"/>
<rect x="105.2" y="635.0" width="9.8" height="35.0" fill="#46c7a8" opacity="0.8"/>
<rect x="116.7" y="670.0" width="9.8" height="0.0" fill="#46c7a8" opacity="0.8"/>
<rect x="128.1" y="643.8" width="9.8" height="26.2" fill="#46c7a8" opacity="0.8"/>
<rect x="139.5" y="307.3" width="9.8" height="362.7" fill="#ffcf4a" opacity="1"/>
<text x="144.2" y="299.3" fill="#ffe89a" font-size="12.5" font-weight="700" text-anchor="middle">Day 9</text>
<text x="144.2" y="285.3" fill="#8a96ad" font-size="11" text-anchor="middle">83 (66%)</text>
<rect x="150.9" y="670.0" width="9.8" height="0.0" fill="#46c7a8" opacity="0.8"/>
<rect x="162.3" y="670.0" width="9.8" height="0.0" fill="#46c7a8" opacity="0.8"/>
<rect x="173.7" y="503.9" width="9.8" height="166.1" fill="#46c7a8" opacity="0.8"/>
<rect x="185.2" y="670.0" width="9.8" height="0.0" fill="#46c7a8" opacity="0.8"/>
<rect x="196.6" y="665.6" width="9.8" height="4.4" fill="#46c7a8" opacity="0.8"/>
<rect x="208.0" y="652.5" width="9.8" height="17.5" fill="#46c7a8" opacity="0.8"/>
<rect x="219.4" y="656.9" width="9.8" height="13.1" fill="#46c7a8" opacity="0.8"/>
<rect x="230.8" y="630.7" width="9.8" height="39.3" fill="#46c7a8" opacity="0.8"/>
<rect x="242.2" y="525.8" width="9.8" height="144.2" fill="#46c7a8" opacity="0.8"/>
<rect x="253.6" y="665.6" width="9.8" height="4.4" fill="#46c7a8" opacity="0.8"/>
<rect x="265.1" y="670.0" width="9.8" height="0.0" fill="#46c7a8" opacity="0.8"/>
<rect x="276.5" y="670.0" width="9.8" height="0.0" fill="#46c7a8" opacity="0.8"/>
<rect x="287.9" y="407.8" width="9.8" height="262.2" fill="#46c7a8" opacity="0.8"/>
<rect x="299.3" y="670.0" width="9.8" height="0.0" fill="#46c7a8" opacity="0.8"/>
<rect x="310.7" y="613.2" width="9.8" height="56.8" fill="#46c7a8" opacity="0.8"/>
<rect x="322.1" y="635.0" width="9.8" height="35.0" fill="#46c7a8" opacity="0.8"/>
<rect x="333.5" y="648.2" width="9.8" height="21.8" fill="#46c7a8" opacity="0.8"/>
<rect x="345.0" y="648.2" width="9.8" height="21.8" fill="#46c7a8" opacity="0.8"/>
<rect x="356.4" y="670.0" width="9.8" height="0.0" fill="#46c7a8" opacity="0.8"/>
<rect x="367.8" y="656.9" width="9.8" height="13.1" fill="#46c7a8" opacity="0.8"/>
<rect x="379.2" y="652.5" width="9.8" height="17.5" fill="#46c7a8" opacity="0.8"/>
<rect x="390.6" y="670.0" width="9.8" height="0.0" fill="#46c7a8" opacity="0.8"/>
<rect x="402.0" y="670.0" width="9.8" height="0.0" fill="#46c7a8" opacity="0.8"/>
<rect x="413.5" y="670.0" width="9.8" height="0.0" fill="#46c7a8" opacity="0.8"/>
<rect x="424.9" y="534.5" width="9.8" height="135.5" fill="#46c7a8" opacity="0.8"/>
<rect x="436.3" y="582.6" width="9.8" height="87.4" fill="#46c7a8" opacity="0.8"/>
<rect x="447.7" y="438.4" width="9.8" height="231.6" fill="#46c7a8" opacity="0.8"/>
<rect x="459.1" y="670.0" width="9.8" height="0.0" fill="#46c7a8" opacity="0.8"/>
<rect x="470.5" y="670.0" width="9.8" height="0.0" fill="#46c7a8" opacity="0.8"/>
<rect x="481.9" y="670.0" width="9.8" height="0.0" fill="#46c7a8" opacity="0.8"/>
<rect x="493.4" y="670.0" width="9.8" height="0.0" fill="#46c7a8" opacity="0.8"/>
<rect x="504.8" y="670.0" width="9.8" height="0.0" fill="#46c7a8" opacity="0.8"/>
<rect x="516.2" y="578.2" width="9.8" height="91.8" fill="#46c7a8" opacity="0.8"/>
<rect x="527.6" y="573.9" width="9.8" height="96.1" fill="#46c7a8" opacity="0.8"/>
<rect x="539.0" y="656.9" width="9.8" height="13.1" fill="#46c7a8" opacity="0.8"/>
<rect x="550.4" y="670.0" width="9.8" height="0.0" fill="#46c7a8" opacity="0.8"/>
<rect x="561.8" y="407.8" width="9.8" height="262.2" fill="#46c7a8" opacity="0.8"/>
<rect x="573.3" y="259.2" width="9.8" height="410.8" fill="#ffcf4a" opacity="1"/>
<rect x="584.7" y="464.6" width="9.8" height="205.4" fill="#46c7a8" opacity="0.8"/>
<rect x="596.1" y="670.0" width="9.8" height="0.0" fill="#46c7a8" opacity="0.8"/>
<rect x="607.5" y="670.0" width="9.8" height="0.0" fill="#46c7a8" opacity="0.8"/>
<rect x="618.9" y="573.9" width="9.8" height="96.1" fill="#46c7a8" opacity="0.8"/>
<rect x="630.3" y="351.0" width="9.8" height="319.0" fill="#46c7a8" opacity="0.8"/>
<text x="635.0" y="343.0" fill="#ffe89a" font-size="12.5" font-weight="700" text-anchor="middle">Day 53</text>
<text x="635.0" y="329.0" fill="#8a96ad" font-size="11" text-anchor="middle">73 (87%)</text>
<rect x="641.8" y="268.0" width="9.8" height="402.0" fill="#ffcf4a" opacity="1"/>
<rect x="653.2" y="337.9" width="9.8" height="332.1" fill="#ffcf4a" opacity="1"/>
<rect x="664.6" y="656.9" width="9.8" height="13.1" fill="#46c7a8" opacity="0.8"/>
<rect x="676.0" y="656.9" width="9.8" height="13.1" fill="#46c7a8" opacity="0.8"/>
<rect x="687.4" y="670.0" width="9.8" height="0.0" fill="#46c7a8" opacity="0.8"/>
<rect x="698.8" y="670.0" width="9.8" height="0.0" fill="#46c7a8" opacity="0.8"/>
<rect x="710.2" y="670.0" width="9.8" height="0.0" fill="#46c7a8" opacity="0.8"/>
<rect x="721.7" y="670.0" width="9.8" height="0.0" fill="#46c7a8" opacity="0.8"/>
<rect x="733.1" y="648.2" width="9.8" height="21.8" fill="#46c7a8" opacity="0.8"/>
<rect x="744.5" y="670.0" width="9.8" height="0.0" fill="#46c7a8" opacity="0.8"/>
<rect x="755.9" y="670.0" width="9.8" height="0.0" fill="#46c7a8" opacity="0.8"/>
<rect x="767.3" y="150.0" width="9.8" height="520.0" fill="#ffcf4a" opacity="1"/>
<text x="772.0" y="142.0" fill="#ffe89a" font-size="12.5" font-weight="700" text-anchor="middle">Day 65</text>
<text x="772.0" y="128.0" fill="#8a96ad" font-size="11" text-anchor="middle">119 (57%)</text>
<rect x="778.7" y="399.1" width="9.8" height="270.9" fill="#46c7a8" opacity="0.8"/>
<rect x="790.2" y="656.9" width="9.8" height="13.1" fill="#46c7a8" opacity="0.8"/>
<rect x="801.6" y="665.6" width="9.8" height="4.4" fill="#46c7a8" opacity="0.8"/>
<rect x="813.0" y="643.8" width="9.8" height="26.2" fill="#46c7a8" opacity="0.8"/>
<rect x="824.4" y="670.0" width="9.8" height="0.0" fill="#46c7a8" opacity="0.8"/>
<rect x="835.8" y="600.1" width="9.8" height="69.9" fill="#46c7a8" opacity="0.8"/>
<rect x="847.2" y="670.0" width="9.8" height="0.0" fill="#46c7a8" opacity="0.8"/>
<rect x="858.6" y="342.3" width="9.8" height="327.7" fill="#46c7a8" opacity="0.8"/>
<rect x="870.1" y="552.0" width="9.8" height="118.0" fill="#46c7a8" opacity="0.8"/>
<rect x="881.5" y="211.2" width="9.8" height="458.8" fill="#ffcf4a" opacity="1"/>
<text x="886.2" y="203.2" fill="#ffe89a" font-size="12.5" font-weight="700" text-anchor="middle">Day 75</text>
<text x="886.2" y="189.2" fill="#8a96ad" font-size="11" text-anchor="middle">105 (52%)</text>
<rect x="892.9" y="552.0" width="9.8" height="118.0" fill="#46c7a8" opacity="0.8"/>
<rect x="904.3" y="621.9" width="9.8" height="48.1" fill="#46c7a8" opacity="0.8"/>
<rect x="915.7" y="460.3" width="9.8" height="209.7" fill="#46c7a8" opacity="0.8"/>
<rect x="927.1" y="569.5" width="9.8" height="100.5" fill="#46c7a8" opacity="0.8"/>
<rect x="938.5" y="648.2" width="9.8" height="21.8" fill="#46c7a8" opacity="0.8"/>
<rect x="950.0" y="670.0" width="9.8" height="0.0" fill="#46c7a8" opacity="0.8"/>
<rect x="961.4" y="652.5" width="9.8" height="17.5" fill="#46c7a8" opacity="0.8"/>
<rect x="972.8" y="477.7" width="9.8" height="192.3" fill="#46c7a8" opacity="0.8"/>
<rect x="984.2" y="670.0" width="9.8" height="0.0" fill="#46c7a8" opacity="0.8"/>
<rect x="995.6" y="670.0" width="9.8" height="0.0" fill="#46c7a8" opacity="0.8"/>
<rect x="1007.0" y="665.6" width="9.8" height="4.4" fill="#46c7a8" opacity="0.8"/>
<rect x="1018.5" y="670.0" width="9.8" height="0.0" fill="#46c7a8" opacity="0.8"/>
<rect x="1029.9" y="665.6" width="9.8" height="4.4" fill="#46c7a8" opacity="0.8"/>
<rect x="1041.3" y="670.0" width="9.8" height="0.0" fill="#46c7a8" opacity="0.8"/>
<rect x="1052.7" y="670.0" width="9.8" height="0.0" fill="#46c7a8" opacity="0.8"/>
<rect x="1064.1" y="643.8" width="9.8" height="26.2" fill="#46c7a8" opacity="0.8"/>
<rect x="1075.5" y="670.0" width="9.8" height="0.0" fill="#46c7a8" opacity="0.8"/>
<rect x="1086.9" y="670.0" width="9.8" height="0.0" fill="#46c7a8" opacity="0.8"/>
<rect x="1098.4" y="670.0" width="9.8" height="0.0" fill="#46c7a8" opacity="0.8"/>
<rect x="1109.8" y="670.0" width="9.8" height="0.0" fill="#46c7a8" opacity="0.8"/>
<rect x="1121.2" y="670.0" width="9.8" height="0.0" fill="#46c7a8" opacity="0.8"/>
<rect x="1132.6" y="670.0" width="9.8" height="0.0" fill="#46c7a8" opacity="0.8"/>
<rect x="1144.0" y="670.0" width="9.8" height="0.0" fill="#46c7a8" opacity="0.8"/>
<rect x="1155.4" y="670.0" width="9.8" height="0.0" fill="#46c7a8" opacity="0.8"/>
<rect x="1166.8" y="661.3" width="9.8" height="8.7" fill="#46c7a8" opacity="0.8"/>
<rect x="1178.3" y="670.0" width="9.8" height="0.0" fill="#46c7a8" opacity="0.8"/>
<rect x="1189.7" y="670.0" width="9.8" height="0.0" fill="#46c7a8" opacity="0.8"/>
<rect x="1201.1" y="670.0" width="9.8" height="0.0" fill="#46c7a8" opacity="0.8"/>
<rect x="1212.5" y="670.0" width="9.8" height="0.0" fill="#46c7a8" opacity="0.8"/>
<rect x="1223.9" y="670.0" width="9.8" height="0.0" fill="#46c7a8" opacity="0.8"/>
<rect x="1235.3" y="670.0" width="9.8" height="0.0" fill="#46c7a8" opacity="0.8"/>
<rect x="1246.8" y="670.0" width="9.8" height="0.0" fill="#46c7a8" opacity="0.8"/>
<rect x="1258.2" y="547.6" width="9.8" height="122.4" fill="#46c7a8" opacity="0.8"/>
<rect x="1269.6" y="670.0" width="9.8" height="0.0" fill="#46c7a8" opacity="0.8"/>
<text x="155.6" y="692" fill="#5e6b82" font-size="11" text-anchor="middle">10</text>
<text x="258.3" y="692" fill="#5e6b82" font-size="11" text-anchor="middle">20</text>
<text x="372.5" y="692" fill="#5e6b82" font-size="11" text-anchor="middle">30</text>
<text x="486.7" y="692" fill="#5e6b82" font-size="11" text-anchor="middle">40</text>
<text x="600.8" y="692" fill="#5e6b82" font-size="11" text-anchor="middle">50</text>
<text x="715.0" y="692" fill="#5e6b82" font-size="11" text-anchor="middle">60</text>
<text x="829.1" y="692" fill="#5e6b82" font-size="11" text-anchor="middle">70</text>
<text x="943.3" y="692" fill="#5e6b82" font-size="11" text-anchor="middle">80</text>
<text x="1057.4" y="692" fill="#5e6b82" font-size="11" text-anchor="middle">90</text>
<text x="1171.6" y="692" fill="#5e6b82" font-size="11" text-anchor="middle">100</text>
<text x="1274.3" y="692" fill="#5e6b82" font-size="11" text-anchor="middle">110</text>
<text x="675" y="718" fill="#6d7a90" font-size="13" text-anchor="middle">hearing day</text>
<text x="70" y="734" fill="#5e6b82" font-size="12.5">Day 53: 73 of 84 passages named him, 87% of the day. Allegation in the public record, not a finding of fact.</text>
</svg>